<?xml version="1.0" encoding="utf-8"?>
<!-- Generator: Adobe Illustrator 22.1.0, SVG Export Plug-In . SVG Version: 6.00 Build 0)  -->
<svg version="1.1" id="Layer_3" xmlns="http://www.w3.org/2000/svg" xmlns:xlink="http://www.w3.org/1999/xlink" x="0px" y="0px"
	 width="250.2px" height="96.22px" viewBox="0 0 250.2 96.22" enable-background="new 0 0 250.2 96.22" xml:space="preserve">
<path d="M93.94,25.64h1.57c0.28,0,0.33,0,0.59,0.08c-0.08-0.26-0.08-0.31-0.08-0.59V14.11c0-0.28,0-0.33,0.08-0.59
	c-0.26,0.08-0.31,0.08-0.59,0.08h-1.57v-2.54h7.96l2.67,9.58c0.51,1.82,0.62,2.29,0.9,3.98h0.13c0.33-1.69,0.41-2.16,0.93-3.96
	l2.77-9.6h7.88v2.54h-1.57c-0.28,0-0.33,0-0.59-0.08c0.08,0.26,0.08,0.31,0.08,0.59v11.02c0,0.28,0,0.33-0.08,0.59
	c0.26-0.08,0.31-0.08,0.59-0.08h1.57v2.54h-7.24v-2.54h1.28c0.28,0,0.33,0,0.59,0.08c-0.08-0.26-0.08-0.31-0.08-0.59v-6.68
	c0-2.34,0.03-3.13,0.23-5.5l-0.13-0.02c-0.51,2.34-0.69,3-1.39,5.34l-2.95,9.91h-4.16l-2.95-9.91c-0.62-2.16-0.82-2.98-1.34-5.34
	l-0.15,0.02c0.2,2.36,0.23,3.16,0.23,5.5v6.68c0,0.28,0,0.33-0.08,0.59c0.26-0.08,0.31-0.08,0.59-0.08h1.26v2.54h-6.96L93.94,25.64
	L93.94,25.64z M126.95,26.52c-1.39,1.41-2.54,1.92-4.19,1.92c-2.67,0-4.47-1.57-4.47-3.88c0-2.72,2.03-4.08,6.11-4.08
	c0.31,0,0.85,0.02,1.44,0.08h0.28l0.28,0.02l0.31,0.03c-0.08-0.1-0.08-0.15-0.08-0.26v-0.21c0-0.77-0.08-1.18-0.31-1.51
	c-0.33-0.44-1.05-0.72-1.9-0.72c-1.41,0-2.05,0.54-2.23,1.82h-3.31c0.03-2.67,1.95-4.08,5.57-4.08c1.85,0,3.47,0.49,4.39,1.33
	c0.72,0.67,1.08,1.64,1.08,3.11v5.39c0,0.21,0,0.26-0.08,0.41c0.15-0.08,0.21-0.08,0.39-0.08l1.23-0.02v2.39h-4.6v-0.72
	c0-0.36,0.03-0.51,0.15-0.9L126.95,26.52z M124.9,22.69c-2.16,0-3.18,0.62-3.18,1.9c0,0.92,0.77,1.57,1.9,1.57
	c1.08,0,2.05-0.54,2.59-1.41c0.33-0.59,0.41-0.95,0.41-2L124.9,22.69z M132.77,25.8l1.28,0.02c0.18,0,0.23,0.03,0.39,0.08
	c-0.05-0.15-0.05-0.2-0.05-0.38v-6.86c0-0.15,0-0.2,0.05-0.36c-0.15,0.05-0.2,0.05-0.39,0.05l-1.28,0.03v-2.36h4.98v0.87
	c0,0.41-0.05,0.69-0.23,1.23l0.1,0.05c1.1-1.8,2.26-2.47,4.13-2.47c2.77,0,4.39,1.59,4.39,4.29v5.52c0,0.18,0,0.23-0.08,0.38
	c0.15-0.05,0.2-0.08,0.38-0.08l1.21-0.02v2.39h-6.65V25.8l1.31,0.02c0.18,0,0.23,0.03,0.39,0.08c-0.08-0.15-0.08-0.2-0.08-0.38
	v-4.88c0-1.57-0.64-2.29-2.08-2.29c-1.72,0-2.67,1.16-2.67,3.19v3.98c0,0.18,0,0.23-0.05,0.38c0.15-0.05,0.18-0.08,0.36-0.08
	l1.33-0.02v2.39h-6.75V25.8z M160.11,24.03c-0.18,2.93-2.08,4.52-5.42,4.52c-2,0-3.57-0.62-4.62-1.77
	c-1.05-1.15-1.64-2.88-1.64-4.67c0-3.88,2.18-6.42,5.52-6.42c1.7,0,2.75,0.61,3.6,2.08l0.07-0.02c-0.15-0.54-0.2-0.77-0.2-1.05
	v-0.67h2.62v4.88h-2.85c-0.15-1.82-0.87-2.64-2.28-2.64c-1.82,0-2.85,1.44-2.85,3.93c0,2.44,1,3.85,2.77,3.85
	c1.26,0,2.08-0.72,2.29-2L160.11,24.03L160.11,24.03z M161.42,25.8l1.28,0.02c0.18,0,0.23,0.03,0.41,0.08
	c-0.08-0.15-0.08-0.2-0.08-0.38V13.65c0-0.28,0-0.33,0.08-0.59c-0.26,0.08-0.31,0.08-0.59,0.08h-1.1v-2.39h5.11v3.88
	c0,1.49-0.02,1.87-0.15,3.23l0.08,0.05c1.28-1.7,2.24-2.21,3.91-2.21c2.72,0,4.44,1.54,4.44,3.98v5.83c0,0.18,0,0.23-0.07,0.38
	c0.18-0.05,0.2-0.08,0.41-0.08l1.18-0.02v2.39h-6.65V25.8l1.31,0.02c0.18,0,0.23,0.03,0.38,0.08c-0.05-0.15-0.05-0.2-0.05-0.38
	v-4.88c0-1.51-0.69-2.29-2.06-2.29c-1.77,0-2.72,1.1-2.72,3.19v3.98c0,0.18,0,0.23-0.08,0.38c0.18-0.05,0.23-0.08,0.39-0.08
	l1.34-0.02v2.39h-6.75L161.42,25.8L161.42,25.8z M189.27,24.44c-0.28,2.44-2.59,4.11-5.75,4.11c-3.95,0-6.39-2.49-6.39-6.45
	c0-2.08,0.51-3.52,1.72-4.7c1.13-1.1,2.72-1.7,4.55-1.7c3.78,0,6.01,2.36,6.01,6.37v1h-8.17c-0.31,0-0.38,0-0.64-0.1
	c0.15,2.03,1.23,3.16,3,3.16c1.28,0,2.16-0.62,2.46-1.7C186.06,24.44,189.27,24.44,189.27,24.44z M185.29,20.89
	c0.39,0,0.46,0,0.77,0.08c-0.23-1.98-1.1-2.95-2.64-2.95c-1.59,0-2.57,1.05-2.77,2.95c0.31-0.08,0.39-0.08,0.74-0.08
	C181.39,20.89,185.29,20.89,185.29,20.89z M193.78,23.92c0.13,1.49,1.08,2.34,2.52,2.34c1.1,0,1.77-0.51,1.77-1.28
	c0-0.85-0.54-1.26-2.13-1.54c-2.59-0.49-3.36-0.74-4.01-1.33c-0.7-0.69-1-1.41-1-2.47c0-2.57,1.57-4.01,4.45-4.01
	c1.41,0,2.41,0.51,3.36,1.77l0.08-0.03c-0.1-0.39-0.15-0.56-0.15-0.82v-0.54h2.57v4.03h-2.67c-0.18-1.44-0.97-2.18-2.36-2.18
	c-1.05,0-1.75,0.49-1.75,1.28c0,0.38,0.18,0.72,0.46,0.87c0.26,0.15,0.59,0.28,1.03,0.36l1.59,0.36c2.06,0.44,2.75,0.77,3.39,1.59
	c0.46,0.59,0.67,1.33,0.67,2.26c0,2.49-1.64,3.9-4.6,3.9c-1.57,0-2.39-0.44-3.49-1.87l-0.1,0.05c0.15,0.39,0.21,0.62,0.21,0.87v0.64
	h-2.62v-4.26L193.78,23.92L193.78,23.92z M202.46,16.01h1.39c0.28,0,0.33,0,0.59,0.05c-0.08-0.26-0.08-0.28-0.08-0.57v-1.75
	l3.52-1.13v2.88c0,0.28,0,0.31-0.08,0.57c0.26-0.05,0.31-0.05,0.59-0.05h2.83v2.41h-2.83c-0.28,0-0.33,0-0.59-0.08
	c0.08,0.26,0.08,0.31,0.08,0.59v5.68c0,1.05,0.28,1.46,0.97,1.46c0.74,0,1.03-0.46,1.1-1.82h2.03v0.44c0,2.49-1.18,3.67-3.67,3.67
	c-2.64,0-3.96-1.13-3.96-3.41v-6.01c0-0.28,0-0.33,0.08-0.59c-0.26,0.08-0.31,0.08-0.59,0.08h-1.39L202.46,16.01L202.46,16.01z
	 M225.1,24.44c-0.28,2.44-2.59,4.11-5.75,4.11c-3.96,0-6.4-2.49-6.4-6.45c0-2.08,0.52-3.52,1.72-4.7c1.13-1.1,2.72-1.7,4.55-1.7
	c3.78,0,6.01,2.36,6.01,6.37v1h-8.17c-0.31,0-0.39,0-0.64-0.1c0.15,2.03,1.23,3.16,3,3.16c1.29,0,2.16-0.62,2.47-1.7
	C221.89,24.44,225.1,24.44,225.1,24.44z M221.12,20.89c0.38,0,0.46,0,0.77,0.08c-0.23-1.98-1.11-2.95-2.65-2.95
	c-1.59,0-2.57,1.05-2.77,2.95c0.31-0.08,0.38-0.08,0.74-0.08C217.21,20.89,221.12,20.89,221.12,20.89z M226.48,25.8l1.28,0.02
	c0.18,0,0.23,0.03,0.41,0.08c-0.08-0.15-0.08-0.2-0.08-0.38v-6.86c0-0.15,0-0.2,0.08-0.36c-0.18,0.05-0.23,0.05-0.41,0.05
	l-1.28,0.03v-2.36h4.85v1.21c0,0.51-0.05,0.93-0.26,1.87l0.13,0.03c0.9-2.39,2.08-3.36,3.93-3.36c0.46,0,0.72,0.03,1.34,0.13v2.98
	c-0.49-0.08-0.69-0.1-1.08-0.1c-2.46,0-3.8,1.31-3.8,3.72v2.77c0,0.33,0,0.38-0.05,0.64c0.26-0.05,0.33-0.08,0.61-0.08l1.46-0.02
	v2.39h-7.14L226.48,25.8L226.48,25.8z M93.94,49.84h1.57c0.28,0,0.33,0,0.59,0.08c-0.08-0.26-0.08-0.31-0.08-0.59V38.31
	c0-0.28,0-0.33,0.08-0.59c-0.26,0.08-0.31,0.08-0.59,0.08h-1.57v-2.54h7.96l2.67,9.58c0.51,1.82,0.62,2.29,0.9,3.98h0.13
	c0.33-1.69,0.41-2.16,0.93-3.95l2.77-9.6h7.88v2.54h-1.57c-0.28,0-0.33,0-0.59-0.08c0.08,0.26,0.08,0.31,0.08,0.59v11.02
	c0,0.28,0,0.33-0.08,0.59c0.26-0.08,0.31-0.08,0.59-0.08h1.57v2.54h-7.24v-2.54h1.28c0.28,0,0.33,0,0.59,0.08
	c-0.08-0.26-0.08-0.31-0.08-0.59v-6.68c0-2.34,0.03-3.13,0.23-5.5l-0.13-0.02c-0.51,2.34-0.69,3-1.39,5.34l-2.95,9.91h-4.16
	l-2.95-9.91c-0.62-2.16-0.82-2.98-1.34-5.34l-0.15,0.02c0.2,2.36,0.23,3.16,0.23,5.5v6.68c0,0.28,0,0.33-0.08,0.59
	c0.26-0.08,0.31-0.08,0.59-0.08h1.26v2.54h-6.96L93.94,49.84L93.94,49.84z M130.21,48.64c-0.28,2.44-2.59,4.11-5.75,4.11
	c-3.95,0-6.39-2.49-6.39-6.45c0-2.08,0.51-3.52,1.72-4.7c1.13-1.1,2.72-1.7,4.55-1.7c3.78,0,6.01,2.36,6.01,6.37v1h-8.17
	c-0.31,0-0.39,0-0.64-0.1c0.15,2.03,1.23,3.16,3,3.16c1.28,0,2.16-0.62,2.47-1.69L130.21,48.64L130.21,48.64z M126.23,45.09
	c0.39,0,0.46,0,0.77,0.08c-0.23-1.98-1.1-2.95-2.64-2.95c-1.59,0-2.57,1.05-2.77,2.95c0.31-0.08,0.39-0.08,0.74-0.08H126.23z
	 M131.26,40.21h1.39c0.28,0,0.33,0,0.59,0.05c-0.08-0.26-0.08-0.28-0.08-0.56v-1.75l3.52-1.13v2.88c0,0.28,0,0.31-0.08,0.56
	c0.26-0.05,0.31-0.05,0.59-0.05h2.82v2.41h-2.82c-0.28,0-0.33,0-0.59-0.08c0.08,0.26,0.08,0.31,0.08,0.59v5.68
	c0,1.05,0.28,1.46,0.98,1.46c0.75,0,1.03-0.46,1.1-1.82h2.03v0.44c0,2.49-1.18,3.67-3.67,3.67c-2.64,0-3.95-1.13-3.95-3.41v-6.01
	c0-0.28,0-0.33,0.08-0.59c-0.26,0.08-0.31,0.08-0.59,0.08h-1.39L131.26,40.21L131.26,40.21z M141.93,50l1.28,0.03
	c0.18,0,0.23,0.03,0.41,0.08c-0.08-0.15-0.08-0.2-0.08-0.39v-6.86c0-0.15,0-0.2,0.08-0.36c-0.18,0.05-0.23,0.05-0.41,0.05
	l-1.28,0.03v-2.36h4.85v1.21c0,0.51-0.05,0.93-0.26,1.87l0.13,0.03c0.9-2.39,2.08-3.36,3.93-3.36c0.46,0,0.72,0.03,1.33,0.13v2.98
	c-0.49-0.08-0.7-0.1-1.08-0.1c-2.47,0-3.8,1.31-3.8,3.72v2.77c0,0.33,0,0.39-0.05,0.64c0.26-0.05,0.33-0.08,0.62-0.08l1.46-0.03
	v2.39h-7.14L141.93,50L141.93,50z M165.5,46.27c0,3.9-2.57,6.39-6.55,6.39c-1.59,0-3.39-0.64-4.44-1.54
	c-1.26-1.05-1.98-2.85-1.98-4.85c0-1.8,0.62-3.52,1.7-4.57c1.16-1.13,2.93-1.8,4.8-1.8C162.93,39.91,165.5,42.42,165.5,46.27z
	 M156.13,46.25c0,2.44,1.1,3.93,2.9,3.93c1.77,0,2.9-1.51,2.9-3.85c0-2.41-1.1-3.93-2.88-3.93
	C157.24,42.4,156.13,43.86,156.13,46.25z M166.22,54.47h1.1c0.28,0,0.33,0,0.59,0.08c-0.08-0.26-0.08-0.31-0.08-0.59V42.86
	c0-0.15,0-0.2,0.08-0.36c-0.18,0.05-0.2,0.05-0.41,0.05l-1.28,0.03v-2.36h4.88v0.9c0,0.41-0.05,0.69-0.21,1.33l0.1,0.03
	c1-1.77,2.34-2.62,4.16-2.62c3.34,0,5.44,2.46,5.44,6.45c0,3.9-2.03,6.37-5.26,6.37c-1.85,0-3.21-0.8-4.11-2.44l-0.1,0.05
	c0.18,0.98,0.2,1.31,0.2,2.28v1.39c0,0.28,0,0.33-0.05,0.59c0.26-0.08,0.28-0.08,0.56-0.08h1.34v2.39h-6.96L166.22,54.47
	L166.22,54.47z M171.17,46.38c0,2.31,1.21,3.83,2.98,3.83c1.85,0,2.93-1.44,2.93-3.9c0-2.44-1.08-3.93-2.8-3.93
	C172.35,42.37,171.17,43.91,171.17,46.38z M194.61,46.27c0,3.9-2.57,6.39-6.55,6.39c-1.59,0-3.39-0.64-4.45-1.54
	c-1.26-1.05-1.98-2.85-1.98-4.85c0-1.8,0.62-3.52,1.7-4.57c1.16-1.13,2.93-1.8,4.8-1.8C192.04,39.91,194.61,42.42,194.61,46.27z
	 M185.24,46.25c0,2.44,1.1,3.93,2.9,3.93c1.77,0,2.9-1.51,2.9-3.85c0-2.41-1.1-3.93-2.87-3.93
	C186.34,42.4,185.24,43.86,185.24,46.25z M195.48,50l1.28,0.03c0.21,0,0.23,0,0.41,0.08c-0.08-0.15-0.08-0.2-0.08-0.39V37.85
	c0-0.28,0-0.33,0.08-0.59c-0.26,0.08-0.31,0.08-0.59,0.08h-1.1v-2.39h5.11v14.77c0,0.18,0,0.23-0.05,0.38
	c0.16-0.08,0.21-0.08,0.39-0.08L202.1,50v2.39h-6.62L195.48,50L195.48,50z M203.53,50l1.29,0.03c0.18,0,0.23,0.03,0.41,0.08
	c-0.08-0.15-0.08-0.2-0.08-0.39v-6.86c0-0.15,0-0.2,0.08-0.36c-0.18,0.05-0.23,0.05-0.41,0.05l-1.29,0.03v-2.36h5.11v9.5
	c0,0.18,0,0.23-0.08,0.38c0.18-0.05,0.23-0.08,0.41-0.08l1.18-0.03v2.39h-6.63V50z M205.02,34.95h3.62v3.49h-3.62V34.95z
	 M210.54,40.21h1.39c0.28,0,0.33,0,0.59,0.05c-0.08-0.26-0.08-0.28-0.08-0.56v-1.75l3.52-1.13v2.88c0,0.28,0,0.31-0.08,0.56
	c0.26-0.05,0.31-0.05,0.59-0.05h2.82v2.41h-2.82c-0.28,0-0.34,0-0.59-0.08c0.08,0.26,0.08,0.31,0.08,0.59v5.68
	c0,1.05,0.28,1.46,0.98,1.46c0.74,0,1.03-0.46,1.1-1.82h2.03v0.44c0,2.49-1.18,3.67-3.67,3.67c-2.65,0-3.96-1.13-3.96-3.41v-6.01
	c0-0.28,0-0.33,0.08-0.59c-0.26,0.08-0.31,0.08-0.59,0.08h-1.39L210.54,40.21L210.54,40.21z M229.56,50.72
	c-1.39,1.41-2.54,1.92-4.18,1.92c-2.67,0-4.47-1.57-4.47-3.88c0-2.72,2.03-4.08,6.11-4.08c0.31,0,0.85,0.02,1.44,0.08h0.28
	l0.28,0.03l0.31,0.03c-0.07-0.1-0.07-0.15-0.07-0.26v-0.21c0-0.77-0.08-1.18-0.31-1.51c-0.33-0.44-1.05-0.72-1.9-0.72
	c-1.41,0-2.06,0.54-2.24,1.82h-3.31c0.03-2.67,1.95-4.08,5.57-4.08c1.85,0,3.47,0.49,4.39,1.34c0.72,0.67,1.08,1.64,1.08,3.11v5.39
	c0,0.2,0,0.26-0.08,0.41c0.16-0.08,0.21-0.08,0.39-0.08l1.23-0.03v2.39h-4.6v-0.72c0-0.36,0.03-0.51,0.16-0.9L229.56,50.72z
	 M227.51,46.89c-2.15,0-3.18,0.62-3.18,1.9c0,0.92,0.77,1.57,1.9,1.57c1.08,0,2.05-0.54,2.59-1.41c0.33-0.59,0.41-0.95,0.41-2
	L227.51,46.89z M235.21,50l1.28,0.03c0.18,0,0.23,0.03,0.39,0.08c-0.05-0.15-0.05-0.2-0.05-0.39v-6.86c0-0.15,0-0.2,0.05-0.36
	c-0.15,0.05-0.21,0.05-0.39,0.05l-1.28,0.03v-2.36h4.98v0.87c0,0.41-0.05,0.69-0.23,1.23l0.1,0.05c1.1-1.8,2.26-2.47,4.13-2.47
	c2.77,0,4.39,1.59,4.39,4.29v5.52c0,0.18,0,0.23-0.08,0.38c0.16-0.05,0.21-0.08,0.39-0.08L250.1,50v2.39h-6.65V50l1.31,0.03
	c0.18,0,0.23,0.03,0.39,0.08c-0.08-0.15-0.08-0.2-0.08-0.38v-4.88c0-1.57-0.64-2.29-2.08-2.29c-1.72,0-2.67,1.16-2.67,3.19v3.98
	c0,0.18,0,0.23-0.05,0.38c0.15-0.05,0.18-0.08,0.36-0.08l1.33-0.03v2.39h-6.75L235.21,50L235.21,50z M96.51,61.67
	c0-0.28,0-0.31,0.08-0.56c-0.26,0.05-0.31,0.05-0.59,0.05h-1.8v-1.69h7.32v1.69h-2.21c-0.26,0-0.31,0-0.57-0.05
	c0.05,0.26,0.05,0.28,0.05,0.56v8.76c0,1.23,0.26,2.08,0.77,2.85c0.77,1.1,2.16,1.77,3.65,1.77c2.88,0,4.52-1.9,4.52-5.19v-8.19
	c0-0.28,0-0.31,0.08-0.56c-0.26,0.05-0.31,0.05-0.56,0.05h-2.18v-1.69h7.01v1.69h-1.77c-0.26,0-0.31,0-0.56-0.05
	c0.05,0.26,0.05,0.28,0.05,0.56v7.91c0,2.41-0.26,3.49-1.16,4.78c-1.13,1.64-3.11,2.62-5.37,2.62c-2.39,0-4.29-0.82-5.49-2.34
	c-0.9-1.16-1.26-2.41-1.26-4.42L96.51,61.67L96.51,61.67z M116.61,67.09c0.67-1.87,2.03-2.77,4.16-2.77c2.62,0,4.19,1.41,4.19,3.72
	v6.45c0,0.28,0,0.33-0.08,0.59c0.26-0.08,0.31-0.08,0.59-0.08h1.41v1.59h-6.19V75h1.59c0.26,0,0.31,0,0.56,0.08
	c-0.05-0.26-0.05-0.31-0.05-0.59v-5.7c0-1.75-0.87-2.7-2.52-2.8c-2.11-0.1-3.52,1.39-3.52,3.8v4.7c0,0.26,0,0.33-0.08,0.59
	c0.26-0.08,0.31-0.08,0.59-0.08h1.62v1.59h-6.52V75h1.72c0.28,0,0.31,0,0.56,0.08c-0.05-0.26-0.05-0.31-0.05-0.59v-7.73
	c0-0.31,0-0.39,0.05-0.64c-0.28,0.08-0.33,0.08-0.64,0.08l-1.64,0.03v-1.59h4.26v1.1c0,0.33-0.05,0.64-0.18,1.33L116.61,67.09z
	 M132.13,74.48c0,0.28,0,0.33-0.08,0.59c0.26-0.08,0.31-0.08,0.59-0.08h1.62v1.59h-6.5V75h1.7c0.28,0,0.31,0,0.56,0.08
	c-0.05-0.26-0.05-0.31-0.05-0.59v-7.73c0-0.31,0-0.39,0.05-0.64c-0.26,0.08-0.33,0.08-0.61,0.08l-1.64,0.03v-1.59h4.36L132.13,74.48
	L132.13,74.48z M132.11,59.46v2.34h-2.36v-2.34H132.11z M143.4,67.6c0.26-0.67,0.33-0.85,0.62-1.49c-0.51,0.08-0.62,0.08-1.18,0.08
	l-1.1,0.03v-1.59h5.73v1.59l-1.39-0.05l-4.16,10.43h-2.7l-4.24-10.43l-1.39,0.05v-1.59h5.86v1.59l-1.08-0.03
	c-0.54,0-0.69,0-1.18-0.08c0.28,0.64,0.36,0.82,0.61,1.46l1.7,4.47c0.54,1.39,0.64,1.67,1.03,2.95h0.1
	c0.39-1.28,0.49-1.57,1.03-2.95L143.4,67.6z M159.09,72.89c-0.39,2.44-2.54,4.01-5.55,4.01c-3.75,0-6.14-2.41-6.14-6.19
	c0-3.96,2.34-6.39,6.14-6.39c2.78,0,4.75,1.41,5.39,3.85c0.26,0.93,0.31,1.41,0.31,2.93h-9.17c-0.21,0-0.26,0-0.43-0.08
	c0.05,2.42,1.67,4.19,3.88,4.19c1.93,0,3.26-0.85,3.6-2.31L159.09,72.89L159.09,72.89z M156.47,69.52c0.28,0,0.33,0,0.56,0.08
	c-0.13-2.21-1.46-3.62-3.54-3.62c-2.06,0-3.52,1.39-3.8,3.62c0.33-0.08,0.44-0.08,0.82-0.08H156.47z M164.65,67.44
	c0.44-2.05,1.77-3.13,3.9-3.13c0.28,0,0.59,0.05,0.9,0.13v1.93c-0.44-0.23-0.67-0.31-1.15-0.31c-2.18,0-3.52,1.64-3.52,4.37v4.06
	c0,0.28,0,0.33-0.08,0.59c0.23-0.08,0.31-0.08,0.59-0.08h2.05v1.59h-6.96v-1.59h1.69c0.28,0,0.34,0,0.59,0.08
	c-0.07-0.26-0.07-0.31-0.07-0.59v-7.73c0-0.31,0-0.39,0.07-0.64c-0.28,0.08-0.36,0.08-0.64,0.08l-1.64,0.03v-1.59h4.26v1.26
	c0,0.1-0.03,0.38-0.08,0.77c0,0.15-0.02,0.44-0.05,0.77L164.65,67.44z M180.21,64.62v3.9h-1.74c0-1.57-1.18-2.54-3.19-2.54
	c-1.75,0-2.83,0.72-2.83,1.85c0,0.39,0.15,0.74,0.44,0.98c0.33,0.28,0.67,0.41,1.7,0.54l1.49,0.23c1.54,0.23,2.52,0.54,3.13,1.03
	c0.72,0.56,1.13,1.46,1.13,2.44c0,2.39-1.82,3.85-4.8,3.85c-1.85,0-3-0.62-3.72-1.98l-0.1,0.02c0.1,0.44,0.13,0.64,0.13,0.9v0.75
	h-1.72v-4.13h1.72c0.1,1.69,1.46,2.75,3.52,2.75c0.43,0,1.26-0.15,1.72-0.36c0.59-0.26,1.03-0.87,1.03-1.46
	c0-0.72-0.28-1.21-0.82-1.47c-0.38-0.18-0.84-0.28-1.92-0.43l-1.34-0.15c-2.75-0.41-3.8-1.34-3.8-3.42c0-1.18,0.54-2.13,1.57-2.75
	c1-0.62,2.24-0.92,3.52-0.85c1.59,0.1,2.54,0.62,3.19,1.82l0.13-0.03c-0.13-0.41-0.15-0.62-0.15-0.82v-0.67L180.21,64.62
	L180.21,64.62z M186.01,74.48c0,0.28,0,0.33-0.08,0.59c0.26-0.08,0.31-0.08,0.59-0.08h1.62v1.59h-6.5V75h1.7
	c0.28,0,0.31,0,0.57,0.08c-0.05-0.26-0.05-0.31-0.05-0.59v-7.73c0-0.31,0-0.39,0.05-0.64c-0.26,0.08-0.33,0.08-0.62,0.08l-1.64,0.03
	v-1.59h4.37L186.01,74.48L186.01,74.48z M185.98,59.46v2.34h-2.36v-2.34H185.98z M196.56,72.89c0,1.51-0.13,2.13-0.54,2.77
	c-0.59,0.9-1.31,1.23-2.8,1.23c-0.98,0-1.67-0.21-2.23-0.69c-0.74-0.59-1-1.36-1-2.93v-6.52c0-0.31,0-0.39,0.07-0.64
	c-0.28,0.08-0.36,0.08-0.62,0.08l-1.82,0.03v-1.59h1.85c0.28,0,0.33,0,0.59,0.08c-0.07-0.26-0.07-0.31-0.07-0.59v-2.16l2.18-0.77
	v2.93c0,0.28,0,0.33-0.08,0.59c0.26-0.08,0.31-0.08,0.59-0.08h3.39v1.59l-3.36-0.03c-0.28,0-0.36-0.03-0.62-0.08
	c0.08,0.26,0.08,0.33,0.08,0.62v6.55c0,0.87,0.08,1.21,0.31,1.49c0.23,0.31,0.62,0.46,1.05,0.46c0.56,0,1.02-0.31,1.18-0.82
	c0.1-0.31,0.13-0.7,0.18-1.51H196.56L196.56,72.89z M197.94,66.16l-1.31,0.05v-1.59h5.85v1.59l-1.16-0.03c-0.56,0-0.72,0-1.23-0.05
	c0.33,0.61,0.36,0.72,0.72,1.54l1.8,4.16c0.54,1.23,0.67,1.54,1.05,2.72h0.1c0.39-1.18,0.46-1.41,1.03-2.72l1.72-4.19
	c0.34-0.77,0.39-0.9,0.7-1.51c-0.51,0.05-0.67,0.05-1.23,0.05l-1.13,0.03v-1.59h5.62v1.59l-1.23-0.05l-4.98,11.58
	c-0.74,1.75-1.21,2.49-1.69,2.88c-0.51,0.38-1.31,0.59-2.24,0.59c-0.62,0-1.18-0.05-1.59-0.15v-1.62c0.26,0.05,0.8,0.08,1.11,0.08
	c1.23,0,1.49-0.21,2.13-1.57l0.64-1.33L197.94,66.16z M83.51,72.19L83.51,72.19c-7.8,5.47-27.36,11.08-30.64,1.26
	c-5.95,4.48-9.51,16.67-11.02,22.73l0,0c-1.51-6.06-5.08-18.25-11.02-22.73c-3.28,9.82-22.83,4.21-30.64-1.26h0
	c-0.83-9.49,4.08-29.23,14.23-27.16c-0.9-7.38-9.67-16.56-14.16-20.91v0c6,1.72,18.34,4.73,25.19,1.82
	c-6.87-7.75,7.77-21.88,16.41-25.9l0,0c8.64,4.02,23.28,18.15,16.4,25.9c6.85,2.91,19.19-0.1,25.19-1.82l0,0
	c-4.49,4.34-13.26,13.52-14.17,20.91C79.43,42.96,84.34,62.7,83.51,72.19z M41.85,4.29L41.85,4.29
	c-6.83,3.49-13.87,9.72-15.01,17.29l0.01,0c8.58-2.89,13.36,8.95,15,15.57c1.64-6.62,6.42-18.47,15-15.57l0.01,0
	C55.72,14.01,48.68,7.78,41.85,4.29z M79.8,70.02L79.8,70.02c0.39-7.66-1.48-16.87-7.47-21.64l0,0.01
	c-1.79,8.88-14.44,7.09-20.99,5.2c4.92,4.73,12.79,14.8,5.99,20.78l0,0C64.45,77.17,73.36,74.19,79.8,70.02z M3.9,70.01L3.9,70.01
	c6.44,4.17,15.35,7.16,22.48,4.36l0-0.01c-6.79-5.99,1.07-16.05,5.99-20.78c-6.56,1.89-19.21,3.68-20.99-5.2l0-0.01
	C5.38,53.14,3.51,62.36,3.9,70.01z M41.85,49.96L41.85,49.96c-6.83,3.85-13.87,10.72-15.01,19.07h0.01
	c8.58-3.19,13.36,9.88,15,17.19c1.64-7.31,6.42-20.38,15-17.19h0.01C55.72,60.69,48.68,53.81,41.85,49.96z M40.25,47.18L40.25,47.18
	c0.08-7.84-2.35-17.37-9.01-22.53l-0.01,0c-1.53,9.03-15.23,6.63-22.38,4.4c5.51,5.07,14.44,15.75,7.38,21.58l0,0.01
	C24.02,53.83,33.5,51.17,40.25,47.18z M43.45,47.18L43.45,47.18c6.75,3.99,16.22,6.65,24.03,3.46l0-0.01
	c-7.06-5.83,1.87-16.51,7.38-21.58c-7.15,2.23-20.86,4.63-22.38-4.4l0,0C45.8,29.81,43.37,39.34,43.45,47.18z"/>
</svg>
